<svg xmlns="http://www.w3.org/2000/svg" width="64" height="64" viewBox="0 0 64 64" version="1.1"><path d="M 38.917 12.015 L 36.335 14.886 42.943 21.443 C 46.577 25.049, 49.824 28, 50.158 28 C 50.493 28, 51.002 27.100, 51.290 26 C 51.577 24.900, 52.530 24, 53.406 24 C 56.079 24, 55.270 22.713, 48.250 15.795 L 41.500 9.144 38.917 12.015 M 40.971 14.535 C 39.234 16.628, 40.682 17.746, 42.620 15.809 C 43.555 14.874, 43.794 13.991, 43.209 13.629 C 42.669 13.295, 41.662 13.703, 40.971 14.535 M 44.667 17.667 C 44.300 18.033, 44 18.988, 44 19.789 C 44 20.970, 44.283 21.010, 45.500 20 C 46.325 19.315, 47 18.360, 47 17.878 C 47 16.842, 45.616 16.717, 44.667 17.667 M 32.930 19.584 C 31.182 21.691, 32.748 24.181, 36.652 25.500 C 38.280 26.050, 40.808 27.287, 42.271 28.250 C 47.959 31.994, 47.340 28.745, 41.216 22.712 C 36.018 17.593, 34.925 17.180, 32.930 19.584 M 47.971 21.535 C 46.234 23.628, 47.682 24.746, 49.620 22.809 C 50.555 21.874, 50.794 20.991, 50.209 20.629 C 49.669 20.295, 48.662 20.703, 47.971 21.535 M 33.208 32.288 C 28.963 36.613, 28.177 38.373, 29.989 39.493 C 30.567 39.850, 30.716 39.424, 30.348 38.465 C 29.857 37.184, 30.240 36.900, 32.110 37.163 C 34.067 37.439, 34.446 37.107, 34.201 35.331 C 33.955 33.547, 34.286 33.262, 36.065 33.727 C 37.946 34.219, 38.133 33.994, 37.500 32 C 36.866 30.004, 37.053 29.781, 38.943 30.275 C 40.733 30.743, 40.907 30.593, 39.935 29.421 C 38.241 27.380, 37.870 27.538, 33.208 32.288 M 15.719 36.779 C 12.573 39.957, 10 42.882, 10 43.279 C 10 45.178, 14.761 43.654, 17.687 40.818 C 22.052 36.588, 23.291 38.072, 19.049 42.449 C 16.771 44.800, 15.944 46.412, 16.404 47.611 C 16.968 49.079, 17.848 48.589, 22.003 44.497 C 24.714 41.827, 26.817 38.935, 26.676 38.071 C 26.364 36.159, 23.028 31, 22.104 31 C 21.737 31, 18.864 33.601, 15.719 36.779 M 46.058 39.430 C 45.108 40.574, 45.284 41.082, 46.935 41.965 C 48.071 42.573, 49 43.516, 49 44.061 C 49 44.606, 47.637 44.346, 45.971 43.485 L 42.941 41.918 43.620 44.709 C 44.284 47.438, 44.255 47.461, 42.293 45.725 C 40.537 44.171, 40.134 44.134, 39.061 45.427 C 37.670 47.102, 38.433 50.584, 40.773 53.250 C 41.834 54.458, 43.790 55, 47.090 55 C 49.719 55, 52.977 55.421, 54.331 55.936 C 56.579 56.791, 56.831 56.602, 57.250 53.753 C 57.983 48.755, 56.352 43.720, 53.037 40.750 C 49.597 37.667, 47.803 37.328, 46.058 39.430 M 23.703 45.792 C 20.404 49.170, 18.689 54, 20.788 54 C 21.221 54, 23.699 51.843, 26.295 49.208 C 29.983 45.463, 30.751 44.151, 29.808 43.208 C 28.077 41.477, 27.803 41.593, 23.703 45.792 M 8 49.671 C 8 54.750, 9.982 56.650, 14.801 56.190 C 18.357 55.851, 18.647 55.603, 18.203 53.279 C 17.935 51.882, 16.922 50.531, 15.951 50.277 C 14.980 50.023, 13.960 48.957, 13.686 47.908 C 13.357 46.649, 12.304 46, 10.594 46 C 8.273 46, 8 46.387, 8 49.671" stroke="none" fill="#eeddc2" fill-rule="evenodd"/><path d="M 45.182 4.500 C 43.548 5.875, 41.577 7, 40.802 7 C 38.925 7, 33 13.184, 33 15.143 C 33 15.994, 32.212 17.395, 31.250 18.257 C 29.632 19.706, 28.933 19.338, 22 13.397 C 11.817 4.669, 9.914 3.672, 7.149 5.608 C 5.967 6.436, 5 7.947, 5 8.965 C 5 9.984, 8.442 14.943, 12.649 19.985 L 20.298 29.153 13.134 36.365 L 5.970 43.577 5.337 51.790 L 4.703 60.002 9.602 59.447 C 20.042 58.264, 20.495 58.074, 25.874 52.628 C 30.696 47.745, 31.383 47.367, 33.585 48.384 C 34.915 48.998, 36.251 50.268, 36.555 51.206 C 36.859 52.144, 38.467 54.057, 40.130 55.456 C 42.521 57.468, 44.242 58, 48.354 58 C 51.445 58, 54.458 58.632, 55.780 59.558 C 57.895 61.040, 58.059 60.978, 59.090 58.308 C 59.686 56.764, 59.994 52.906, 59.772 49.737 C 59.309 43.088, 57.063 39.369, 51.929 36.752 C 50.043 35.790, 48.853 35.002, 49.285 35.002 C 49.717 35.001, 49.589 34.100, 49 33 C 48.179 31.465, 48.240 31, 49.262 31 C 51.099 31, 58.367 23.402, 57.646 22.236 C 57.324 21.716, 58.173 20.247, 59.531 18.971 C 60.889 17.695, 62 15.702, 62 14.542 C 62 12.051, 52.219 2, 49.795 2 C 48.892 2, 46.816 3.125, 45.182 4.500 M 38.917 12.015 L 36.335 14.886 42.943 21.443 C 46.577 25.049, 49.824 28, 50.158 28 C 50.493 28, 51.002 27.100, 51.290 26 C 51.577 24.900, 52.530 24, 53.406 24 C 56.079 24, 55.270 22.713, 48.250 15.795 L 41.500 9.144 38.917 12.015 M 40.971 14.535 C 39.234 16.628, 40.682 17.746, 42.620 15.809 C 43.555 14.874, 43.794 13.991, 43.209 13.629 C 42.669 13.295, 41.662 13.703, 40.971 14.535 M 44.667 17.667 C 44.300 18.033, 44 18.988, 44 19.789 C 44 20.970, 44.283 21.010, 45.500 20 C 46.325 19.315, 47 18.360, 47 17.878 C 47 16.842, 45.616 16.717, 44.667 17.667 M 32.930 19.584 C 31.182 21.691, 32.748 24.181, 36.652 25.500 C 38.280 26.050, 40.808 27.287, 42.271 28.250 C 47.959 31.994, 47.340 28.745, 41.216 22.712 C 36.018 17.593, 34.925 17.180, 32.930 19.584 M 47.971 21.535 C 46.234 23.628, 47.682 24.746, 49.620 22.809 C 50.555 21.874, 50.794 20.991, 50.209 20.629 C 49.669 20.295, 48.662 20.703, 47.971 21.535 M 33.208 32.288 C 28.963 36.613, 28.177 38.373, 29.989 39.493 C 30.567 39.850, 30.716 39.424, 30.348 38.465 C 29.857 37.184, 30.240 36.900, 32.110 37.163 C 34.067 37.439, 34.446 37.107, 34.201 35.331 C 33.955 33.547, 34.286 33.262, 36.065 33.727 C 37.946 34.219, 38.133 33.994, 37.500 32 C 36.866 30.004, 37.053 29.781, 38.943 30.275 C 40.733 30.743, 40.907 30.593, 39.935 29.421 C 38.241 27.380, 37.870 27.538, 33.208 32.288 M 15.719 36.779 C 12.573 39.957, 10 42.882, 10 43.279 C 10 45.178, 14.761 43.654, 17.687 40.818 C 22.052 36.588, 23.291 38.072, 19.049 42.449 C 16.771 44.800, 15.944 46.412, 16.404 47.611 C 16.968 49.079, 17.848 48.589, 22.003 44.497 C 24.714 41.827, 26.817 38.935, 26.676 38.071 C 26.364 36.159, 23.028 31, 22.104 31 C 21.737 31, 18.864 33.601, 15.719 36.779 M 46.058 39.430 C 45.108 40.574, 45.284 41.082, 46.935 41.965 C 48.071 42.573, 49 43.516, 49 44.061 C 49 44.606, 47.637 44.346, 45.971 43.485 L 42.941 41.918 43.620 44.709 C 44.284 47.438, 44.255 47.461, 42.293 45.725 C 40.537 44.171, 40.134 44.134, 39.061 45.427 C 37.670 47.102, 38.433 50.584, 40.773 53.250 C 41.834 54.458, 43.790 55, 47.090 55 C 49.719 55, 52.977 55.421, 54.331 55.936 C 56.579 56.791, 56.831 56.602, 57.250 53.753 C 57.983 48.755, 56.352 43.720, 53.037 40.750 C 49.597 37.667, 47.803 37.328, 46.058 39.430 M 23.703 45.792 C 20.404 49.170, 18.689 54, 20.788 54 C 21.221 54, 23.699 51.843, 26.295 49.208 C 29.983 45.463, 30.751 44.151, 29.808 43.208 C 28.077 41.477, 27.803 41.593, 23.703 45.792 M 8 49.671 C 8 54.750, 9.982 56.650, 14.801 56.190 C 18.357 55.851, 18.647 55.603, 18.203 53.279 C 17.935 51.882, 16.922 50.531, 15.951 50.277 C 14.980 50.023, 13.960 48.957, 13.686 47.908 C 13.357 46.649, 12.304 46, 10.594 46 C 8.273 46, 8 46.387, 8 49.671" stroke="none" fill="#9f7fa4" fill-rule="evenodd"/></svg>